Coordinates
version=1
nRows=27
nColumns=38
inDegrees=no

Units are S.I. units (second, meters, Newtons, ...)
If the header above contains a line with 'inDegrees', this indicates whether rotational values are in degrees (yes) or radians (no).

endheader
time	pelvis_tilt	pelvis_list	pelvis_rotation	pelvis_tx	pelvis_ty	pelvis_tz	hip_flexion_r	hip_adduction_r	hip_rotation_r	knee_angle_r	ankle_angle_r	subtalar_angle_r	mtp_angle_r	hip_flexion_l	hip_adduction_l	hip_rotation_l	knee_angle_l	ankle_angle_l	subtalar_angle_l	mtp_angle_l	lumbar_extension	lumbar_bending	lumbar_rotation	arm_flex_r	arm_add_r	arm_rot_r	elbow_flex_r	pro_sup_r	wrist_flex_r	wrist_dev_r	arm_flex_l	arm_add_l	arm_rot_l	elbow_flex_l	pro_sup_l	wrist_flex_l	wrist_dev_l
5.495	0.173845	0.0175204	3.21081	-0.314419	0.967535	-0.00444006	0.578412	0.038819	-0.0401128	0.269131	0.14715	0	0	-0.018322	0.0365856	-0.058052	0.650366	-0.371004	0	0	-0.0322016	0.0482045	-0.126446	-0.398885	-0.621411	0.465433	1.84607	1.35728	0	0	0.46615	-0.448805	1.01904	1.86472	1.50527	0	0
5.50499	0.167181	0.0198749	3.19704	-0.314056	0.962571	-0.004988	0.578632	0.0449702	-0.05182	0.298074	0.137816	0	0	-0.00599557	0.0274402	-0.0850895	0.708051	-0.381356	0	0	-0.0431073	0.05724	-0.110135	-0.363614	-0.629631	0.480957	1.85309	1.35278	0	0	0.451031	-0.451668	1.01903	1.84616	1.49389	0	0
5.51498	0.157905	0.0235187	3.1823	-0.3134	0.957086	-0.00559208	0.577849	0.0523571	-0.0627851	0.335731	0.130139	0	0	0.00669135	0.0163183	-0.111701	0.769715	-0.386988	0	0	-0.0579299	0.0673506	-0.0893757	-0.32741	-0.63751	0.493911	1.86208	1.34862	0	0	0.437439	-0.452872	1.0205	1.82312	1.47868	0	0
5.52497	0.14618	0.0283948	3.16684	-0.312442	0.95121	-0.00622003	0.575919	0.0607874	-0.0724394	0.380928	0.125924	0	0	0.0197268	0.00351393	-0.137054	0.834453	-0.387809	0	0	-0.0764843	0.0783185	-0.0644885	-0.29037	-0.644988	0.504101	1.87336	1.34499	0	0	0.42532	-0.452447	1.02344	1.79563	1.4598	0	0
5.53496	0.132287	0.0343471	3.15099	-0.311181	0.945084	-0.00684023	0.572707	0.0699934	-0.0803194	0.432268	0.126884	0	0	0.0332457	-0.0105352	-0.16035	0.901296	-0.383835	0	0	-0.098431	0.0898408	-0.0360589	-0.252323	-0.652004	0.51169	1.88706	1.34199	0	0	0.414366	-0.450546	1.02759	1.76392	1.43769	0	0
5.54495	0.116631	0.0411224	3.13507	-0.309624	0.938856	-0.00742398	0.568032	0.079629	-0.086148	0.488033	0.134206	0	0	0.0475294	-0.0252819	-0.180886	0.969216	-0.37522	0	0	-0.123254	0.10154	-0.00492402	-0.212853	-0.658461	0.517187	1.90313	1.33957	0	0	0.404019	-0.447451	1.03236	1.72843	1.41306	0	0
5.55495	0.099756	0.0483783	3.11947	-0.30779	0.932672	-0.00794727	0.561667	0.0892544	-0.0899305	0.546165	0.148248	0	0	0.0630008	-0.0401118	-0.198089	1.03714	-0.362278	0	0	-0.150234	0.112978	0.0278351	-0.171348	-0.6642	0.52143	1.92126	1.33761	0	0	0.393479	-0.443573	1.03692	1.68986	1.38689	0	0
5.56494	0.0823365	0.055698	3.10459	-0.305717	0.926669	-0.00839345	0.553422	0.0983422	-0.0919535	0.604424	0.16854	0	0	0.0802087	-0.0543918	-0.211543	1.10397	-0.345463	0	0	-0.178437	0.123675	0.0609146	-0.127074	-0.668971	0.525529	1.94092	1.33597	0	0	0.381739	-0.43945	1.04015	1.64917	1.36036	0	0
5.57493	0.0651439	0.0626304	3.09087	-0.303453	0.920966	-0.00875706	0.543242	0.106342	-0.0926556	0.660671	0.194087	0	0	0.0997746	-0.0675356	-0.220988	1.16862	-0.325322	0	0	-0.206755	0.133154	0.0928535	-0.0792655	-0.672422	0.530757	1.96137	1.33452	0	0	0.367672	-0.43573	1.04077	1.60759	1.33477	0	0
5.58492	0.0489428	0.0687615	3.07874	-0.301059	0.915667	-0.00904564	0.531193	0.112796	-0.0924742	0.713082	0.223673	0	0	0.122264	-0.0790868	-0.226324	1.23002	-0.30244	0	0	-0.234025	0.141012	0.122181	-0.0272779	-0.674116	0.53837	1.98172	1.33323	0	0	0.35017	-0.433103	1.03746	1.56651	1.31139	0	0
5.59491	0.0343635	0.0737771	3.0686	-0.298605	0.910865	-0.0092764	0.517376	0.117424	-0.0917481	0.760231	0.256007	0	0	0.148021	-0.0887677	-0.22763	1.28716	-0.277388	0	0	-0.259182	0.146987	0.147627	0.0292426	-0.67359	0.549389	2.00102	1.33209	0	0	0.328324	-0.432197	1.02908	1.52741	1.29134	0	0
5.6049	0.0218072	0.0774887	3.0607	-0.296163	0.906647	-0.00946858	0.501825	0.120154	-0.0906737	0.801077	0.289824	0	0	0.177046	-0.0964692	-0.225201	1.33908	-0.250689	0	0	-0.281409	0.150973	0.168326	0.0902058	-0.670454	0.564413	2.01844	1.33115	0	0	0.301562	-0.433462	1.01484	1.49166	1.27545	0	0
5.61489	0.0114312	0.0798181	3.05515	-0.293804	0.903089	-0.00963633	0.48446	0.121068	-0.0893318	0.834911	0.323937	0	0	0.20898	-0.102204	-0.219529	1.38488	-0.222794	0	0	-0.300193	0.152996	0.183903	0.155046	-0.664468	0.58357	2.03335	1.33049	0	0	0.269699	-0.437113	0.994417	1.46047	1.26431	0	0
5.62488	0.00318816	0.0807752	3.05192	-0.291591	0.900266	-0.00978554	0.465097	0.120336	-0.0877511	0.861273	0.357251	0	0	0.243173	-0.106068	-0.211267	1.42374	-0.194087	0	0	-0.31534	0.153163	0.194476	0.222739	-0.655607	0.606511	2.04537	1.33021	0	0	0.232953	-0.443121	0.967968	1.43478	1.25819	0	0
5.63487	-0.00309038	0.0804284	3.05082	-0.289578	0.898241	-0.0099145	0.443505	0.11816	-0.0859465	0.87989	0.388744	0	0	0.278799	-0.108205	-0.201169	1.45495	-0.164913	0	0	-0.326893	0.151612	0.200569	0.291943	-0.644076	0.632568	2.05438	1.33039	0	0	0.191868	-0.45125	0.936094	1.41518	1.25696	0	0
5.64486	-0.00759535	0.0788741	3.05157	-0.287809	0.897065	-0.0100156	0.419496	0.114746	-0.0839173	0.890634	0.417464	0	0	0.314995	-0.108785	-0.190033	1.47789	-0.135606	0	0	-0.335011	0.148486	0.202966	0.361176	-0.630284	0.660931	2.06044	1.33107	0	0	0.147212	-0.461128	0.899713	1.4019	1.26012	0	0
5.65485	-0.0104681	0.0762105	3.05381	-0.286319	0.896771	-0.0100777	0.393009	0.110293	-0.0816335	0.893513	0.442507	0	0	0.350971	-0.107976	-0.178632	1.49209	-0.106521	0	0	-0.339842	0.143923	0.2026	0.428938	-0.614798	0.69077	2.06376	1.33218	0	0	0.0998938	-0.472303	0.859972	1.39481	1.26685	0	0
5.66485	-0.0117904	0.0725251	3.05718	-0.285139	0.897372	-0.0100895	0.364123	0.104988	-0.0790215	0.88867	0.463025	0	0	0.386041	-0.105932	-0.167665	1.49719	-0.0780609	0	0	-0.341481	0.138047	0.200483	0.493757	-0.598301	0.721269	2.06461	1.33351	0	0	0.0509483	-0.484299	0.818208	1.39342	1.2761	0	0
5.67484	-0.0116149	0.0679033	3.06132	-0.284294	0.898865	-0.0100424	0.333027	0.0990152	-0.0759749	0.876385	0.478208	0	0	0.419599	-0.102803	-0.157712	1.49299	-0.0506848	0	0	-0.339989	0.130978	0.197668	0.554238	-0.581542	0.751641	2.06337	1.33481	0	0	0.00151244	-0.496667	0.775895	1.39697	1.28671	0	0
5.68483	-0.0100015	0.0624327	3.06591	-0.283806	0.901229	-0.00993332	0.299987	0.0925428	-0.0723888	0.857089	0.487299	0	0	0.451097	-0.0987338	-0.149203	1.47939	-0.0248992	0	0	-0.335455	0.122831	0.195119	0.609205	-0.565245	0.781232	2.06042	1.33581	0	0	-0.0473065	-0.50903	0.734427	1.40454	1.2977	0	0
5.69482	-0.00702599	0.056203	3.07072	-0.283692	0.904425	-0.00976284	0.265345	0.0857076	-0.0682	0.831383	0.489623	0	0	0.480049	-0.0938425	-0.142402	1.45642	-0.00121502	0	0	-0.328019	0.113696	0.193713	0.657664	-0.550105	0.809453	2.05622	1.33637	0	0	-0.0944217	-0.521115	0.695128	1.41516	1.30826	0	0
5.70481	-0.00279745	0.0492993	3.07557	-0.283959	0.908397	-0.00953309	0.229498	0.0785956	-0.063415	0.800047	0.484642	0	0	0.506033	-0.0882094	-0.137408	1.42426	0.0199316	0	0	-0.317924	0.103649	0.194002	0.699081	-0.536603	0.836029	2.0511	1.33642	0	0	-0.139086	-0.532743	0.658815	1.42797	1.31789	0	0
5.7148	0.00256298	0.0418181	3.08032	-0.284604	0.913065	-0.00924504	0.192911	0.0712594	-0.0581168	0.764021	0.471994	0	0	0.528718	-0.0818878	-0.134163	1.38323	0.0382385	0	0	-0.305471	0.0927782	0.196259	0.733323	-0.52502	0.860943	2.04534	1.33594	0	0	-0.180863	-0.543802	0.625858	1.44232	1.32636	0	0
5.72479	0.00894602	0.033888	3.08488	-0.285613	0.918329	-0.00889711	0.156115	0.0637478	-0.052463	0.724358	0.451524	0	0	0.547895	-0.0749331	-0.132466	1.33382	0.053575	0	0	-0.290972	0.0812161	0.200561	0.760554	-0.51548	0.884338	2.03909	1.33501	0	0	-0.219538	-0.554217	0.596335	1.45763	1.33363	0	0
5.73478	0.0162714	0.0256835	3.08913	-0.286965	0.924071	-0.00848607	0.119702	0.0561297	-0.0466729	0.682187	0.423303	0	0	0.563494	-0.0674315	-0.131992	1.27662	0.0659974	0	0	-0.274697	0.0691622	0.206884	0.781136	-0.507995	0.906436	2.03241	1.33374	0	0	-0.255022	-0.56394	0.570178	1.47345	1.33975	0	0
5.74477	0.0244912	0.0174263	3.09297	-0.288627	0.930157	-0.00800919	0.0843042	0.0485089	-0.0410009	0.638669	0.387639	0	0	0.575587	-0.0595187	-0.132316	1.21239	0.0757282	0	0	-0.25686	0.0568873	0.215162	0.795547	-0.502488	0.927482	2.02529	1.33231	0	0	-0.287279	-0.572939	0.547276	1.48937	1.34483	0	0
5.75476	0.0335743	0.00937473	3.09626	-0.290557	0.936446	-0.00746483	0.0505592	0.0410255	-0.0357135	0.59497	0.345095	0	0	0.584364	-0.0513764	-0.132933	1.14205	0.0831183	0	0	-0.237642	0.0447194	0.22532	0.804325	-0.498829	0.947686	2.01763	1.33088	0	0	-0.316275	-0.581192	0.527543	1.50504	1.349	0	0
